<?xml version="1.0" encoding="UTF-8" standalone="no"?><!-- Generator: Gravit.io --><svg xmlns="http://www.w3.org/2000/svg" xmlns:xlink="http://www.w3.org/1999/xlink" style="isolation:isolate" viewBox="0 0 396 347" width="396pt" height="347pt"><defs><clipPath id="_clipPath_sYFTVRgcbM18G3k0d8j8Pw1onr4L7Bn7"><rect width="396" height="347"/></clipPath></defs><g clip-path="url(#_clipPath_sYFTVRgcbM18G3k0d8j8Pw1onr4L7Bn7)"><g><g><linearGradient id="_lgradient_12" x1="0" y1="0.5" x2="1" y2="0.5" gradientTransform="matrix(391,0,0,115,3.5,1.5)" gradientUnits="userSpaceOnUse"><stop offset="0%" stop-opacity="1" style="stop-color:rgb(52,78,110)"/><stop offset="99.1304347826087%" stop-opacity="1" style="stop-color:rgb(68,103,145)"/></linearGradient><path d=" M 3.5 116.5 L 71.5 1.5 L 323.5 1.5 L 394.5 116.5 L 329.5 116.5 L 298.5 67.5 L 95.5 67.5 L 66.5 116.5 L 3.5 116.5 Z " fill="url(#_lgradient_12)" vector-effect="non-scaling-stroke" stroke-width="1" stroke="rgb(0,0,0)" stroke-linejoin="miter" stroke-linecap="square" stroke-miterlimit="3"/><linearGradient id="_lgradient_13" x1="0" y1="0.5" x2="1" y2="0.5" gradientTransform="matrix(391,0,0,-115,1.5,345.5)" gradientUnits="userSpaceOnUse"><stop offset="0%" stop-opacity="1" style="stop-color:rgb(52,78,110)"/><stop offset="99.1304347826087%" stop-opacity="1" style="stop-color:rgb(68,103,145)"/></linearGradient><path d=" M 1.5 230.5 L 69.5 345.5 L 321.5 345.5 L 392.5 230.5 L 327.5 230.5 L 296.5 279.5 L 93.5 279.5 L 64.5 230.5 L 1.5 230.5 Z " fill="url(#_lgradient_13)" vector-effect="non-scaling-stroke" stroke-width="1" stroke="rgb(0,0,0)" stroke-linejoin="miter" stroke-linecap="square" stroke-miterlimit="3"/></g><g><linearGradient id="_lgradient_14" x1="0.996592430327369" y1="0.035588442565186756" x2="1.000000000000003" y2="1.0000000000000002" gradientTransform="matrix(83,0,0,344,94.5,1.5)" gradientUnits="userSpaceOnUse"><stop offset="0%" stop-opacity="1" style="stop-color:rgb(222,184,135)"/><stop offset="100%" stop-opacity="1" style="stop-color:rgb(116,96,70)"/></linearGradient><path d=" M 177.5 1.5 L 139.5 19.5 L 139.5 176.5 L 94.5 259.5 L 94.5 345.5 L 177.5 187.5 L 177.5 1.5 Z " fill="url(#_lgradient_14)" vector-effect="non-scaling-stroke" stroke-width="1" stroke="rgb(0,0,0)" stroke-linejoin="miter" stroke-linecap="square" stroke-miterlimit="3"/><linearGradient id="_lgradient_15" x1="0.996592430327369" y1="0.035588442565186756" x2="1.000000000000003" y2="1.0000000000000002" gradientTransform="matrix(-83,0,0,344,298.5,1.5)" gradientUnits="userSpaceOnUse"><stop offset="0%" stop-opacity="1" style="stop-color:rgb(222,184,135)"/><stop offset="100%" stop-opacity="1" style="stop-color:rgb(116,96,70)"/></linearGradient><path d=" M 215.5 1.5 L 253.5 19.5 L 253.5 176.5 L 298.5 259.5 L 298.5 345.5 L 215.5 187.5 L 215.5 1.5 Z " fill="url(#_lgradient_15)" vector-effect="non-scaling-stroke" stroke-width="1" stroke="rgb(0,0,0)" stroke-linejoin="miter" stroke-linecap="square" stroke-miterlimit="3"/></g></g></g></svg>