<?xml version="1.0" encoding="UTF-8" standalone="no"?><!-- Generator: Gravit.io --><svg xmlns="http://www.w3.org/2000/svg" xmlns:xlink="http://www.w3.org/1999/xlink" style="isolation:isolate" viewBox="444.5 110.5 396 347" width="396pt" height="347pt"><defs><clipPath id="_clipPath_1IZNLPHrYwsg3IS858OHcyzatg3i1ynY"><rect x="444.5" y="110.5" width="396" height="347"/></clipPath></defs><g clip-path="url(#_clipPath_1IZNLPHrYwsg3IS858OHcyzatg3i1ynY)"><g><g><path d=" M 448 227 L 516 112 L 768 112 L 839 227 L 774 227 L 743 178 L 540 178 L 511 227 L 448 227 Z " fill="rgb(68,103,145)" vector-effect="non-scaling-stroke" stroke-width="1" stroke="rgb(0,0,0)" stroke-linejoin="miter" stroke-linecap="square" stroke-miterlimit="3"/><path d=" M 446 341 L 514 456 L 766 456 L 837 341 L 772 341 L 741 390 L 538 390 L 509 341 L 446 341 Z " fill="rgb(68,103,145)" vector-effect="non-scaling-stroke" stroke-width="1" stroke="rgb(0,0,0)" stroke-linejoin="miter" stroke-linecap="square" stroke-miterlimit="3"/><path d=" M 622 112 L 584 130 L 584 287 L 539 370 L 539 456 L 622 298 L 622 112 Z " fill="rgb(222,184,135)" vector-effect="non-scaling-stroke" stroke-width="1" stroke="rgb(0,0,0)" stroke-linejoin="miter" stroke-linecap="square" stroke-miterlimit="3"/><path d=" M 660 112 L 698 130 L 698 287 L 743 370 L 743 456 L 660 298 L 660 112 Z " fill="rgb(222,184,135)" vector-effect="non-scaling-stroke" stroke-width="1" stroke="rgb(0,0,0)" stroke-linejoin="miter" stroke-linecap="square" stroke-miterlimit="3"/></g></g></g></svg>